# xmcd
#
# Track frame offsets:
#	150
#	10338
#	22564
#	33329
#	45292
#	59063
#	70434
#	82810
#	96056
#	107382
#	118970
#	131676
#	143257
#	154733
#	165983
#	181996
#	196472
#	209598
#	224674
#	237594
#	249940
#	261465
#	273466
#	285992
#	298368
#	311044
#	321245
#	334221
#
# Disc length: 4613 seconds
#
# Revision: 1
# Processed by: cddbd v1.4PL0 Copyright (c) Steve Scherf et al.
# Submitted via: audiograbber 1.81.02
#
DISCID=a012031c
DTITLE=Pitch A Boogie Woogie If It Takes Me All Night Long  - Snooky Pryor and Fr
DTITLE=iends
DYEAR=1994
DGENRE=Blues
TTITLE0=Snooky Pryor and Moody Jones - Snooky And Moody's Boogie
TTITLE1=Snooky Pryor and Moody Jones - Telephone Blues
TTITLE2=Snooky Pryor - Boogy Fool
TTITLE3=Snooky Pryor - Raisin Sand
TTITLE4=Snooky Pryor - Fine Boogie
TTITLE5=Snooky Pryor - I'm Getting Tired
TTITLE6=Snooky Pryor - Going Back On The Road
TTITLE7=Snooky Pryor - Hold Me In Your Arms
TTITLE8=Snooky Pryor - Real Fine Boogie
TTITLE9=Snooky Pryor - Harp Instrumental
TTITLE10=Snooky Pryor - Cryin' Shame
TTITLE11=Snooky Pryor - Eighty Nine Ten
TTITLE12=Snooky Pryor - Stop The Train Conductor Take 1
TTITLE13=Snooky Pryor - Walking Boogie
TTITLE14=Snooky Pryor - Stop The Train Conductor Takes 2 And 3
TTITLE15=Snooky Pryor - Uncle Sam Don't Take My Man
TTITLE16=Snooky Pryor - Big Guns Uncle Sam Don't Take My Man (Undubbed)
TTITLE17=Snooky Pryor - I Can't Feel Good No More
TTITLE18=Snooky Pryor - I Can't Feel Good No More (Alt)
TTITLE19=Snooky Pryor - Boogie Twist
TTITLE20=Snooky Pryor - Can't We Get This Straight
TTITLE21=Snooky Pryor and Moody Jones - Rough Treatment
TTITLE22=Snooky Pryor and Moody Jones - Why Should I Worry
TTITLE23=Snooky Pryor - Rough Treatment (Alt)
TTITLE24=Snooky Pryor, Floyd Jones and Moody Jones - Stockyard Blues
TTITLE25=Snooky Pryor, Floyd Jones and Moody Jones - Keep What You Got
TTITLE26=Snooky Pryor and Johnny Young - My Baby Walked Out
TTITLE27=Snooky Pryor and Johnny Young - Let Me Ride Your Mule
EXTD=Westside Records 869\n© 1994
EXTT0=
EXTT1=
EXTT2=
EXTT3=
EXTT4=
EXTT5=
EXTT6=
EXTT7=
EXTT8=
EXTT9=
EXTT10=
EXTT11=
EXTT12=
EXTT13=
EXTT14=
EXTT15=
EXTT16=
EXTT17=
EXTT18=
EXTT19=
EXTT20=
EXTT21=
EXTT22=
EXTT23=
EXTT24=
EXTT25=
EXTT26=
EXTT27=
PLAYORDER=
